# WaveFront *.obj file (generated by Cinema 4D)

mtllib ./cube.mtl

v -100.000000 0.000000 100.000000
v -100.000000 200.000000 100.000000
v 100.000000 0.000000 100.000000
v 100.000000 200.000000 100.000000
v 100.000000 0.000000 -100.000000
v 100.000000 200.000000 -100.000000
v -100.000000 0.000000 -100.000000
v -100.000000 200.000000 -100.000000
v -213.339552 99.543723 -3.953236
# 9 vertices

vn 0.000000 0.000000 1.000000
vn 1.000000 0.000000 0.000000
vn 0.000000 0.000000 -1.000000
vn -0.663294 0.748359 0.000000
vn 0.000000 1.000000 0.000000
vn 0.000000 -1.000000 0.000000
vn -0.659899 -0.751355 0.000000
vn -0.675932 0.000000 0.736964
vn -0.646507 0.000000 -0.762908
# 9 normals

vt 0.663929 0.643208 0.000000
vt 0.332833 0.643208 0.000000
vt 0.332833 0.998326 0.000000
vt 0.663929 0.998326 0.000000
vt 0.001737 0.004975 0.000000
vt 0.001737 0.360093 0.000000
vt 0.363879 0.360093 0.000000
vt 0.363879 0.004975 0.000000
vt 0.726021 0.360093 0.000000
vt 0.726021 0.004975 0.000000
vt 0.001737 0.643208 0.000000
vt 0.160741 0.374293 0.000000
vt 0.001737 0.998326 0.000000
vt 0.995025 0.643208 0.000000
vt 0.995025 0.998326 0.000000
vt 0.836021 0.375365 0.000000
vt 0.499136 0.370135 0.000000
vt 0.995025 0.181724 0.000000
# 18 texture coordinates

o ???
usemtl ??
f 3/4/1 4/3/1 2/2/1 1/1/1
f 5/8/2 6/7/2 4/6/2 3/5/2
f 7/10/3 8/9/3 6/7/3 5/8/3
f 9/12/4 2/2/4 8/11/4
f 4/3/5 6/13/5 8/11/5 2/2/5
f 5/15/6 3/4/6 1/1/6 7/14/6
f 9/16/7 7/14/7 1/1/7
f 9/17/8 1/1/8 2/2/8
f 9/18/9 8/9/9 7/10/9

